<svg width="212" height="52" viewBox="0 0 212 52" fill="none" xmlns="http://www.w3.org/2000/svg">
<mask id="mask0_35_50" style="mask-type:luminance" maskUnits="userSpaceOnUse" x="4" y="3" width="46" height="45">
<path d="M4.81181 3.27148H49.4144V47.3822H4.81181V3.27148Z" fill="white"/>
</mask>
<g mask="url(#mask0_35_50)">
<path fill-rule="evenodd" clip-rule="evenodd" d="M4.8214 47.2215H19.7136V32.7286C19.7136 40.859 26.3851 47.4572 34.6058 47.4572H49.2597V32.7286H34.3675C42.469 32.7286 49.2597 26.1304 49.2597 18.0001C49.2597 9.8697 42.469 3.27148 34.3675 3.27148H4.8214V18.0001H19.7136C11.4929 18.0001 4.8214 24.5983 4.8214 32.7286V47.2215ZM19.7136 32.7286V18.0001H34.3675V32.7286H19.7136Z" fill="#222A34"/>
</g>
<mask id="mask1_35_50" style="mask-type:luminance" maskUnits="userSpaceOnUse" x="66" y="9" width="146" height="34">
<path d="M211.472 9.45435H66.3448V42.3974H211.472V9.45435Z" fill="white"/>
</mask>
<g mask="url(#mask1_35_50)">
<path d="M68.8161 17.8475C69.1952 17.7849 69.5986 17.7223 70.0264 17.6667C70.4611 17.6041 70.8959 17.5554 71.3341 17.5276C71.7688 17.4928 72.1897 17.4684 72.6001 17.458C73.0174 17.4406 73.3965 17.4302 73.7408 17.4302C74.5373 17.4302 75.3268 17.5067 76.1058 17.6528C76.8849 17.8023 77.5805 18.0562 78.1926 18.4179C78.8116 18.7727 79.3055 19.263 79.6672 19.8926C80.0359 20.5255 80.2237 21.3185 80.2237 22.2715C80.2237 23.6835 79.8933 24.8312 79.236 25.7216C78.5856 26.605 77.7126 27.2171 76.6205 27.5579L77.817 28.3231L81.754 34.8894H77.8726L73.9634 28.1561L72.1827 27.8362V34.8894H68.8161V17.8475ZM73.9773 20.4212C73.633 20.4212 73.2956 20.4316 72.9618 20.449C72.6279 20.4699 72.367 20.5012 72.1827 20.5464V25.5407H73.6156C74.5512 25.5407 75.2989 25.3286 75.8554 24.9008C76.4119 24.4765 76.6901 23.7705 76.6901 22.7862C76.6901 22.0558 76.4571 21.4785 75.9945 21.0611C75.5389 20.6368 74.8677 20.4212 73.9773 20.4212Z" fill="#222A34"/>
<path d="M85.5141 17.6672H88.8808V34.89H85.5141V17.6672Z" fill="#222A34"/>
<path d="M93.7229 17.6667C94.0637 17.6215 94.4532 17.5832 94.8915 17.5554C95.3262 17.5206 95.7714 17.4928 96.227 17.4719C96.6895 17.4545 97.1382 17.4441 97.5764 17.4441C98.0112 17.4371 98.4007 17.4302 98.745 17.4302C100.265 17.4302 101.569 17.6458 102.654 18.0701C103.739 18.4979 104.616 19.0961 105.284 19.8647C105.958 20.6368 106.452 21.555 106.758 22.6193C107.071 23.687 107.231 24.859 107.231 26.1389C107.231 27.3006 107.082 28.4205 106.786 29.5056C106.487 30.5837 105.997 31.5436 105.311 32.3853C104.623 33.22 103.715 33.8947 102.585 34.4025C101.461 34.9033 100.074 35.1537 98.425 35.1537C98.1538 35.1537 97.8025 35.1433 97.3677 35.1259C96.94 35.1155 96.4913 35.0981 96.0183 35.0703C95.5523 35.0494 95.1071 35.0285 94.6828 35.0007C94.255 34.9729 93.935 34.9451 93.7229 34.9172V17.6667ZM99.0093 20.4212C98.6476 20.4212 98.279 20.4316 97.9103 20.449C97.5486 20.4699 97.2738 20.4908 97.0895 20.5186V32.0653C97.1521 32.0758 97.2634 32.0862 97.4234 32.0932C97.5799 32.1036 97.7468 32.114 97.9242 32.121C98.1085 32.1314 98.279 32.1418 98.4389 32.1488C98.6059 32.1592 98.7311 32.1627 98.8146 32.1627C99.7675 32.1627 100.56 31.9958 101.193 31.6619C101.823 31.3211 102.32 30.8689 102.682 30.3124C103.051 29.756 103.312 29.116 103.461 28.3926C103.607 27.6623 103.684 26.911 103.684 26.1389C103.684 25.4642 103.618 24.786 103.489 24.1078C103.357 23.4227 103.117 22.8105 102.766 22.2715C102.411 21.7359 101.931 21.2942 101.319 20.9498C100.714 20.5986 99.9449 20.4212 99.0093 20.4212Z" fill="#222A34"/>
<path d="M117.259 25.9166H123.672V33.5819C122.984 34.1593 122.159 34.5801 121.196 34.8479C120.24 35.1053 119.294 35.2374 118.358 35.2374C117.262 35.2374 116.243 35.0635 115.297 34.7227C114.358 34.3714 113.545 33.8323 112.849 33.1089C112.16 32.3786 111.618 31.4465 111.221 30.3127C110.832 29.1823 110.637 27.8364 110.637 26.2783C110.637 24.6575 110.867 23.2733 111.333 22.1326C111.806 20.9918 112.421 20.0701 113.183 19.3641C113.941 18.6511 114.797 18.1364 115.743 17.8199C116.696 17.4965 117.669 17.333 118.664 17.333C119.645 17.333 120.507 17.4095 121.252 17.5556C122.003 17.6947 122.594 17.8477 123.032 18.0147L122.351 20.8388C121.94 20.6823 121.481 20.5571 120.973 20.4631C120.462 20.3727 119.812 20.324 119.026 20.324C118.32 20.324 117.669 20.4318 117.078 20.644C116.494 20.8596 115.983 21.2109 115.548 21.7013C115.11 22.1847 114.772 22.8003 114.532 23.5516C114.299 24.3028 114.184 25.221 114.184 26.3061C114.184 27.3356 114.296 28.2259 114.518 28.9771C114.748 29.7214 115.068 30.337 115.478 30.8274C115.896 31.3108 116.376 31.6691 116.925 31.8986C117.471 32.1212 118.055 32.2325 118.678 32.2325C119.102 32.2325 119.52 32.1838 119.93 32.0795C120.347 31.9682 120.695 31.8082 120.973 31.5925V28.3511L117.259 27.9477V25.9166Z" fill="#222A34"/>
<path d="M127.702 17.6672H137.913V20.6722H131.069V24.6788H137.301V27.6837H131.069V31.885H138.038V34.89H127.702V17.6672Z" fill="#222A34"/>
<path d="M142.085 17.6672H152.297V20.6722H145.452V24.9292H151.754V27.9341H145.452V34.89H142.085V17.6672Z" fill="#222A34"/>
<path d="M155.582 26.2783C155.582 23.4124 156.211 21.2074 157.474 19.6563C158.733 18.1086 160.538 17.333 162.886 17.333C164.117 17.333 165.195 17.5486 166.113 17.9729C167.031 18.4007 167.79 19.0094 168.395 19.7954C169.007 20.5744 169.455 21.517 169.744 22.6195C170.04 23.715 170.189 24.9358 170.189 26.2783C170.189 29.1545 169.553 31.3665 168.283 32.9142C167.01 34.4653 165.212 35.2374 162.886 35.2374C161.641 35.2374 160.562 35.0218 159.644 34.5975C158.726 34.1732 157.964 33.5645 157.363 32.775C156.768 31.989 156.323 31.0465 156.027 29.951C155.728 28.8485 155.582 27.6242 155.582 26.2783ZM159.129 26.2783C159.129 27.1512 159.202 27.9546 159.352 28.685C159.498 29.4084 159.721 30.0344 160.02 30.5631C160.326 31.0848 160.715 31.4917 161.188 31.7873C161.668 32.0864 162.235 32.2325 162.886 32.2325C164.082 32.2325 165.007 31.7699 165.668 30.8413C166.325 29.9057 166.656 28.3859 166.656 26.2783C166.656 25.4436 166.586 24.6645 166.447 23.9411C166.308 23.2177 166.089 22.5882 165.793 22.0491C165.494 21.5135 165.112 21.0892 164.639 20.7831C164.166 20.4771 163.581 20.324 162.886 20.324C161.689 20.324 160.761 20.8075 160.103 21.7709C159.453 22.7273 159.129 24.2298 159.129 26.2783Z" fill="#222A34"/>
<path d="M174.147 17.8475C174.526 17.7849 174.929 17.7223 175.357 17.6667C175.792 17.6041 176.226 17.5554 176.665 17.5276C177.099 17.4928 177.52 17.4684 177.931 17.458C178.348 17.4406 178.727 17.4302 179.071 17.4302C179.868 17.4302 180.657 17.5067 181.436 17.6528C182.215 17.8023 182.911 18.0562 183.523 18.4179C184.142 18.7727 184.636 19.263 184.998 19.8926C185.367 20.5255 185.554 21.3185 185.554 22.2715C185.554 23.6835 185.224 24.8312 184.567 25.7216C183.916 26.605 183.043 27.2171 181.951 27.5579L183.148 28.3231L187.085 34.8894H183.203L179.294 28.1561L177.513 27.8362V34.8894H174.147V17.8475ZM179.308 20.4212C178.964 20.4212 178.626 20.4316 178.292 20.449C177.958 20.4699 177.698 20.5012 177.513 20.5464V25.5407H178.946C179.882 25.5407 180.63 25.3286 181.186 24.9008C181.742 24.4765 182.021 23.7705 182.021 22.7862C182.021 22.0558 181.788 21.4785 181.325 21.0611C180.87 20.6368 180.198 20.4212 179.308 20.4212Z" fill="#222A34"/>
<path d="M203.852 25.9586L204.228 22.5363H204.075L203.018 25.2909L199.359 31.7181H198.274L194.406 25.277L193.321 22.5363H193.21L193.697 25.9308V34.89H190.497V17.6672H193.571L198.176 25.5413L198.983 27.5167H199.08L199.818 25.4995L204.172 17.6672H207.219V34.89H203.852V25.9586Z" fill="#222A34"/>
</g>
</svg>
